<?xml version="1.0" encoding="utf-8" standalone="no"?>
<!DOCTYPE svg PUBLIC "-//W3C//DTD SVG 1.1//EN"
  "http://www.w3.org/Graphics/SVG/1.1/DTD/svg11.dtd">
<!-- Created with matplotlib (http://matplotlib.org/) -->
<svg height="70pt" version="1.1" viewBox="0 0 280 70" width="280pt" xmlns="http://www.w3.org/2000/svg" xmlns:xlink="http://www.w3.org/1999/xlink">
 <defs>
  <style type="text/css">
*{stroke-linecap:butt;stroke-linejoin:round;stroke-miterlimit:100000;}
  </style>
 </defs>
 <g id="figure_1">
  <g id="patch_1">
   <path d="M 0 70.542136 
L 280.542136 70.542136 
L 280.542136 0 
L 0 0 
z
" style="fill:#ffffff;"/>
  </g>
  <g id="axes_1">
   <g id="patch_2">
    <path d="M 9.231068 57.111068 
L 271.311068 57.111068 
L 271.311068 13.431068 
L 9.231068 13.431068 
z
" style="fill:#ffffff;"/>
   </g>
   <g id="line2d_1">
    <path clip-path="url(#pdac0176d82)" d="M 182.271068 56.271068 
L 224.271068 56.271068 
" style="fill:none;stroke:#000000;stroke-linecap:square;"/>
   </g>
   <g id="line2d_2">
    <path clip-path="url(#pdac0176d82)" d="M 224.271068 14.271068 
L 266.271068 14.271068 
" style="fill:none;stroke:#000000;stroke-linecap:square;"/>
   </g>
   <g id="line2d_3">
    <path clip-path="url(#pdac0176d82)" d="M 98.271068 56.271068 
L 140.271068 56.271068 
" style="fill:none;stroke:#000000;stroke-linecap:square;"/>
   </g>
   <g id="line2d_4">
    <path clip-path="url(#pdac0176d82)" d="M 14.271068 14.271068 
L 56.271068 14.271068 
" style="fill:none;stroke:#000000;stroke-linecap:square;"/>
   </g>
   <g id="line2d_5">
    <path clip-path="url(#pdac0176d82)" d="M 56.271068 14.271068 
L 98.271068 14.271068 
" style="fill:none;stroke:#000000;stroke-linecap:square;"/>
   </g>
   <g id="line2d_6">
    <path clip-path="url(#pdac0176d82)" d="M 14.271068 56.271068 
L 56.271068 56.271068 
" style="fill:none;stroke:#000000;stroke-linecap:square;"/>
   </g>
   <g id="line2d_7">
    <path clip-path="url(#pdac0176d82)" d="M 140.271068 14.271068 
L 140.271068 56.271068 
" style="fill:none;stroke:#000000;stroke-linecap:square;"/>
   </g>
   <g id="line2d_8">
    <path clip-path="url(#pdac0176d82)" d="M 266.271068 14.271068 
L 266.271068 56.271068 
" style="fill:none;stroke:#000000;stroke-linecap:square;"/>
   </g>
   <g id="line2d_9">
    <path clip-path="url(#pdac0176d82)" d="M 98.271068 14.271068 
L 98.271068 56.271068 
" style="fill:none;stroke:#000000;stroke-linecap:square;"/>
   </g>
   <g id="line2d_10">
    <path clip-path="url(#pdac0176d82)" d="M 224.271068 56.271068 
L 266.271068 56.271068 
" style="fill:none;stroke:#000000;stroke-linecap:square;"/>
   </g>
   <g id="line2d_11">
    <path clip-path="url(#pdac0176d82)" d="M 182.271068 14.271068 
L 224.271068 14.271068 
" style="fill:none;stroke:#000000;stroke-linecap:square;"/>
   </g>
   <g id="line2d_12">
    <path clip-path="url(#pdac0176d82)" d="M 140.271068 14.271068 
L 182.271068 14.271068 
" style="fill:none;stroke:#000000;stroke-linecap:square;"/>
   </g>
   <g id="line2d_13">
    <path clip-path="url(#pdac0176d82)" d="M 182.271068 14.271068 
L 182.271068 56.271068 
" style="fill:none;stroke:#000000;stroke-linecap:square;"/>
   </g>
   <g id="line2d_14">
    <path clip-path="url(#pdac0176d82)" d="M 56.271068 56.271068 
L 98.271068 56.271068 
" style="fill:none;stroke:#000000;stroke-linecap:square;"/>
   </g>
   <g id="line2d_15">
    <path clip-path="url(#pdac0176d82)" d="M 224.271068 14.271068 
L 224.271068 56.271068 
" style="fill:none;stroke:#000000;stroke-linecap:square;"/>
   </g>
   <g id="line2d_16">
    <path clip-path="url(#pdac0176d82)" d="M 14.271068 14.271068 
L 14.271068 56.271068 
" style="fill:none;stroke:#000000;stroke-linecap:square;"/>
   </g>
   <g id="line2d_17">
    <path clip-path="url(#pdac0176d82)" d="M 56.271068 14.271068 
L 56.271068 56.271068 
" style="fill:none;stroke:#000000;stroke-linecap:square;"/>
   </g>
   <g id="line2d_18">
    <path clip-path="url(#pdac0176d82)" d="M 98.271068 14.271068 
L 140.271068 14.271068 
" style="fill:none;stroke:#000000;stroke-linecap:square;"/>
   </g>
   <g id="line2d_19">
    <path clip-path="url(#pdac0176d82)" d="M 140.271068 56.271068 
L 182.271068 56.271068 
" style="fill:none;stroke:#000000;stroke-linecap:square;"/>
   </g>
   <g id="matplotlib.axis_1"/>
   <g id="matplotlib.axis_2"/>
   <g id="PathCollection_1">
    <defs>
     <path d="M 0 7.071068 
C 1.875269 7.071068 3.673985 6.326016 5 5 
C 6.326016 3.673985 7.071068 1.875269 7.071068 0 
C 7.071068 -1.875269 6.326016 -3.673985 5 -5 
C 3.673985 -6.326016 1.875269 -7.071068 0 -7.071068 
C -1.875269 -7.071068 -3.673985 -6.326016 -5 -5 
C -6.326016 -3.673985 -7.071068 -1.875269 -7.071068 0 
C -7.071068 1.875269 -6.326016 3.673985 -5 5 
C -3.673985 6.326016 -1.875269 7.071068 0 7.071068 
z
" id="me03345d984" style="stroke:#000000;"/>
    </defs>
    <g>
     <use style="fill:#fec7b8;stroke:#000000;" x="56.2710678119" xlink:href="#me03345d984" y="14.2710678119"/>
     <use style="fill:#fec7b8;stroke:#000000;" x="98.2710678119" xlink:href="#me03345d984" y="56.2710678119"/>
     <use style="fill:#fec7b8;stroke:#000000;" x="14.2710678119" xlink:href="#me03345d984" y="14.2710678119"/>
     <use style="fill:#fec7b8;stroke:#000000;" x="266.271067812" xlink:href="#me03345d984" y="14.2710678119"/>
     <use style="fill:#fec7b8;stroke:#000000;" x="182.271067812" xlink:href="#me03345d984" y="56.2710678119"/>
     <use style="fill:#fec7b8;stroke:#000000;" x="98.2710678119" xlink:href="#me03345d984" y="14.2710678119"/>
     <use style="fill:#fec7b8;stroke:#000000;" x="224.271067812" xlink:href="#me03345d984" y="56.2710678119"/>
     <use style="fill:#fec7b8;stroke:#000000;" x="140.271067812" xlink:href="#me03345d984" y="56.2710678119"/>
     <use style="fill:#fec7b8;stroke:#000000;" x="224.271067812" xlink:href="#me03345d984" y="14.2710678119"/>
     <use style="fill:#fec7b8;stroke:#000000;" x="182.271067812" xlink:href="#me03345d984" y="14.2710678119"/>
     <use style="fill:#fec7b8;stroke:#000000;" x="266.271067812" xlink:href="#me03345d984" y="56.2710678119"/>
     <use style="fill:#fec7b8;stroke:#000000;" x="14.2710678119" xlink:href="#me03345d984" y="56.2710678119"/>
     <use style="fill:#fec7b8;stroke:#000000;" x="140.271067812" xlink:href="#me03345d984" y="14.2710678119"/>
     <use style="fill:#fec7b8;stroke:#000000;" x="56.2710678119" xlink:href="#me03345d984" y="56.2710678119"/>
    </g>
   </g>
  </g>
 </g>
 <defs>
  <clipPath id="pdac0176d82">
   <rect height="43.68" width="262.08" x="9.23106781187" y="13.4310678119"/>
  </clipPath>
 </defs>
</svg>
